<svg id="SvgjsSvg1010" xmlns="http://www.w3.org/2000/svg" version="1.1" xmlns:xlink="http://www.w3.org/1999/xlink" xmlns:svgjs="http://svgjs.com/svgjs" width="36" height="24" viewBox="0 0 36 24"><title>Rectangle 2</title><desc>Created with Avocode.</desc><defs id="SvgjsDefs1011"></defs><path id="SvgjsPath1012" d="M688 25C688 23.89543 688.89543 23 690 23H722C723.10457 23 724 23.89543 724 25V25C724 26.10457 723.10457 27 722 27H690C688.89543 27 688 26.10457 688 25Z " fill="#ffffff" fill-opacity="1" transform="matrix(1,0,0,1,-688,-23)"></path><path id="SvgjsPath1013" d="M688 45C688 43.89543 688.89543 43 690 43H722C723.10457 43 724 43.89543 724 45V45C724 46.10457 723.10457 47 722 47H690C688.89543 47 688 46.10457 688 45Z " fill="#ffffff" fill-opacity="1" transform="matrix(1,0,0,1,-688,-23)"></path><path id="SvgjsPath1014" d="M688 35C688 33.89543 688.89543 33 690 33H722C723.10457 33 724 33.89543 724 35V35C724 36.10457 723.10457 37 722 37H690C688.89543 37 688 36.10457 688 35Z " fill="#ffffff" fill-opacity="1" transform="matrix(1,0,0,1,-688,-23)"></path></svg>