<?xml version="1.0" encoding="UTF-8"?>
<svg width="47px" height="47px" viewBox="0 0 47 47" version="1.1" xmlns="http://www.w3.org/2000/svg" xmlns:xlink="http://www.w3.org/1999/xlink">
    <!-- Generator: Sketch 43.1 (39012) - http://www.bohemiancoding.com/sketch -->
    <title>checked (4)</title>
    <desc>Created with Sketch.</desc>
    <defs>
        <linearGradient x1="100%" y1="15.6166943%" x2="-10.2455242%" y2="87.3777366%" id="linearGradient-1">
            <stop stop-color="#FFC200" offset="0%"></stop>
            <stop stop-color="#FB531D" offset="100%"></stop>
        </linearGradient>
    </defs>
    <g id="Page-1" stroke="none" stroke-width="1" fill="none" fill-rule="evenodd">
        <g id="1280px-copy-3" transform="translate(-746.000000, -1749.000000)" fill-rule="nonzero" fill="url(#linearGradient-1)">
            <g id="3b" transform="translate(0.000000, 1546.000000)">
                <g id="Group-16" transform="translate(725.000000, 182.000000)">
                    <g id="checked-(4)" transform="translate(21.000000, 21.000000)">
                        <path d="M33.3227974,16.273062 L19.0323381,29.617828 L14.7152109,25.2962745 C14.3354948,24.8960994 13.6958891,24.8861583 13.3061485,25.2762985 C12.9063833,25.6564039 12.8964524,26.2966653 13.286193,26.6868056 C13.2962176,26.6968405 13.3061485,26.7067815 13.3061485,26.7067815 L18.3027923,31.7085484 C18.6825084,32.0886538 19.3021585,32.0986886 19.6918992,31.7285243 L34.6819243,17.7235209 C35.0816895,17.3434155 35.1116695,16.7131889 34.7318598,16.3130138 C34.3521437,15.9129325 33.7225627,15.8928628 33.3227974,16.273062 Z" id="Shape"></path>
                        <path d="M23.5,0 C10.545625,0 0,10.545625 0,23.5 C0,36.454375 10.545625,47 23.5,47 C36.454375,47 47,36.454375 47,23.5 C47,10.545625 36.454375,0 23.5,0 Z M23.5,45.0416973 C11.6226777,45.0416973 1.95830273,35.3773223 1.95830273,23.5 C1.95830273,11.6226777 11.6226777,1.95830273 23.5,1.95830273 C35.3773223,1.95830273 45.0416973,11.6226777 45.0416973,23.5 C45.0416973,35.3773223 35.3773223,45.0416973 23.5,45.0416973 Z" id="Shape"></path>
                    </g>
                </g>
            </g>
        </g>
    </g>
</svg>