<?xml version="1.0" encoding="UTF-8"?>
<svg width="28px" height="28px" viewBox="0 0 28 28" version="1.1" xmlns="http://www.w3.org/2000/svg" xmlns:xlink="http://www.w3.org/1999/xlink">
    <!-- Generator: Sketch 43.1 (39012) - http://www.bohemiancoding.com/sketch -->
    <title>Combined Shape</title>
    <desc>Created with Sketch.</desc>
    <defs></defs>
    <g id="Page-1" stroke="none" stroke-width="1" fill="none" fill-rule="evenodd">
        <g id="768px-menu" transform="translate(-699.000000, -24.000000)" fill="#FFFFFF">
            <g id="head-copy">
                <g id="Group-2" transform="translate(699.000000, 24.000000)">
                    <path d="M14,11.1715729 L4.10029808,1.27187095 C3.31554058,0.487113453 2.05312652,0.491029355 1.27207794,1.27207794 C0.485584028,2.05857185 0.490936684,3.31936381 1.27187095,4.10029808 L11.1715729,14 L1.27187095,23.8997019 C0.487113453,24.6844594 0.491029355,25.9468735 1.27207794,26.7279221 C2.05857185,27.514416 3.31936381,27.5090633 4.10029808,26.728129 L14,16.8284271 L23.8997019,26.728129 C24.6844594,27.5128865 25.9468735,27.5089706 26.7279221,26.7279221 C27.514416,25.9414282 27.5090633,24.6806362 26.728129,23.8997019 L16.8284271,14 L26.728129,4.10029808 C27.5128865,3.31554058 27.5089706,2.05312652 26.7279221,1.27207794 C25.9414282,0.485584028 24.6806362,0.490936684 23.8997019,1.27187095 L14,11.1715729 Z" id="Combined-Shape"></path>
                </g>
            </g>
        </g>
    </g>
</svg>