<?xml version="1.0" encoding="UTF-8"?>
<svg width="39px" height="48px" viewBox="0 0 39 48" version="1.1" xmlns="http://www.w3.org/2000/svg" xmlns:xlink="http://www.w3.org/1999/xlink">
    <!-- Generator: Sketch 43.1 (39012) - http://www.bohemiancoding.com/sketch -->
    <title>forms copy</title>
    <desc>Created with Sketch.</desc>
    <defs>
        <linearGradient x1="100%" y1="5.48935395%" x2="-3.17100545%" y2="100%" id="linearGradient-1">
            <stop stop-color="#FFC200" offset="0%"></stop>
            <stop stop-color="#FB531D" offset="100%"></stop>
        </linearGradient>
        <linearGradient x1="100%" y1="15.6166943%" x2="-10.2455242%" y2="87.3777366%" id="linearGradient-2">
            <stop stop-color="#FC7D12" offset="0%"></stop>
            <stop stop-color="#FB531D" offset="100%"></stop>
        </linearGradient>
        <linearGradient x1="100%" y1="15.6166943%" x2="-10.2455242%" y2="87.3777366%" id="linearGradient-3">
            <stop stop-color="#FFC200" offset="0%"></stop>
            <stop stop-color="#FB531D" offset="100%"></stop>
        </linearGradient>
    </defs>
    <g id="Page-1" stroke="none" stroke-width="1" fill="none" fill-rule="evenodd">
        <g id="1280px-copy-3" transform="translate(-492.000000, -1749.000000)" fill-rule="nonzero">
            <g id="3b" transform="translate(0.000000, 1546.000000)">
                <g id="Group-15" transform="translate(466.000000, 182.000000)">
                    <g id="forms-copy" transform="translate(26.000000, 21.000000)">
                        <path d="M38.7171871,11.8934768 L27.2786481,0.28696819 C27.0974668,0.103218548 26.8519804,0 26.5959613,0 L4.69186687,0 C2.10469708,0 0,2.13580833 0,4.7609907 L0,43.239103 C0,45.8641917 2.10478948,48 4.69195926,48 L34.3080407,48 C36.8952105,48 39,45.8642854 39,43.239103 L39,12.5861942 C38.9999076,12.3264134 38.8981837,12.0772264 38.7171871,11.8934768 Z M27.5616458,3.34489972 L35.7039039,11.6066961 L30.3227903,11.6066961 C29.58513,11.6066961 28.8916333,11.3152279 28.370171,10.7861039 C27.8486164,10.2570737 27.5615534,9.55348134 27.5616458,8.80507655 L27.5616458,3.34489972 Z M37.0690929,43.2390093 C37.0690929,44.7839125 35.8304814,46.0407226 34.3080407,46.0407226 L4.69186687,46.0407226 C3.1693338,46.0407226 1.93072234,44.7839125 1.93072234,43.2390093 L1.93072234,4.7609907 C1.93081473,3.21608747 3.1694262,1.95918367 4.69186687,1.95918367 L25.6308311,1.95918367 L25.6308311,8.80488905 C25.6306463,10.0766053 26.1186625,11.2721967 27.0047973,12.1713512 C27.8910244,13.0705995 29.0693037,13.565786 30.322698,13.565786 L37.0690005,13.565786 L37.0690005,43.2390093 L37.0690929,43.2390093 Z" id="Shape" fill="url(#linearGradient-1)"></path>
                        <path d="M9.18290585,33 L8.81709415,33 C8.3658899,33 8,33.4476983 8,34 C8,34.5523017 8.3658899,35 8.81709415,35 L9.18290585,35 C9.6341101,35 10,34.5523017 10,34 C10,33.4476983 9.6341101,33 9.18290585,33 Z" id="Shape" fill="url(#linearGradient-2)"></path>
                        <path d="M30.0464134,33 L12.9535866,33 C12.4270104,33 12,33.4476983 12,34 C12,34.5523017 12.4270104,35 12.9535866,35 L30.0464134,35 C30.5729896,35 31,34.5523017 31,34 C31,33.4476983 30.5729896,33 30.0464134,33 Z" id="Shape" fill="url(#linearGradient-3)"></path>
                        <path d="M9.18290585,27 L8.81709415,27 C8.3658899,27 8,27.4476983 8,28 C8,28.5523017 8.3658899,29 8.81709415,29 L9.18290585,29 C9.6341101,29 10,28.5523017 10,28 C10,27.4476983 9.6341101,27 9.18290585,27 Z" id="Shape" fill="url(#linearGradient-2)"></path>
                        <path d="M30.0464134,27 L12.9535866,27 C12.4270104,27 12,27.4476983 12,28 C12,28.5523017 12.4270104,29 12.9535866,29 L30.0464134,29 C30.5729896,29 31,28.5523017 31,28 C31,27.4476983 30.5729896,27 30.0464134,27 Z" id="Shape" fill="url(#linearGradient-3)"></path>
                        <path d="M9.18290585,21 L8.81709415,21 C8.3658899,21 8,21.4476983 8,22 C8,22.5523017 8.3658899,23 8.81709415,23 L9.18290585,23 C9.6341101,23 10,22.5523017 10,22 C10,21.4476983 9.6341101,21 9.18290585,21 Z" id="Shape" fill="url(#linearGradient-2)"></path>
                        <path d="M30.0464134,21 L12.9535866,21 C12.4270104,21 12,21.4476983 12,22 C12,22.5523017 12.4270104,23 12.9535866,23 L30.0464134,23 C30.5729896,23 31,22.5523017 31,22 C31,21.4476983 30.5729896,21 30.0464134,21 Z" id="Shape" fill="url(#linearGradient-3)"></path>
                    </g>
                </g>
            </g>
        </g>
    </g>
</svg>