<svg id="SvgjsSvg1000" xmlns="http://www.w3.org/2000/svg" version="1.1" xmlns:xlink="http://www.w3.org/1999/xlink" xmlns:svgjs="http://svgjs.com/svgjs" width="38" height="38" viewBox="0 0 38 38"><title>Rectangle 5 Copy</title><desc>Created with Avocode.</desc><defs id="SvgjsDefs1001"></defs><path id="SvgjsPath1007" d="M262 133C262 130.79086 263.79086 129 266 129H296C298.20914 129 300 130.79086 300 133V163C300 165.20914 298.20914 167 296 167H266C263.79086 167 262 165.20914 262 163Z " fill="#ffc200" fill-opacity="1" transform="matrix(1,0,0,1,-262,-129)"></path><path id="SvgjsPath1008" d="M280.92 148C280.94 148 280.97 148 281 148C281.01 148 281.02 148 281.03 148C281.03999999999996 148 281.05999999999995 148 281.07 148C282.48 147.98 283.62 147.5 284.46 146.59C286.29999999999995 144.59 285.98999999999995 141.16 285.96 140.83C285.84 138.38000000000002 284.63 137.20000000000002 283.64 136.65C282.89 136.24 282.02 136.02 281.06 136H281.02C281.02 136 281.01 136 281 136H280.97C280.44000000000005 136 279.40000000000003 136.08 278.39000000000004 136.63C277.39000000000004 137.18 276.16 138.35999999999999 276.04 140.82999999999998C276.01000000000005 141.16 275.70000000000005 144.58999999999997 277.54 146.58999999999997C278.38 147.49999999999997 279.52000000000004 147.97999999999996 280.92 147.99999999999997ZM277.32 140.95C277.32 140.92999999999998 277.32 140.92 277.32 140.91C277.48 137.6 279.92 137.25 280.96999999999997 137.25H280.98999999999995C280.99999999999994 137.25 281.00999999999993 137.25 281.03 137.25C282.32 137.28 284.52 137.78 284.66999999999996 140.91C284.66999999999996 140.93 284.66999999999996 140.94 284.67999999999995 140.95C284.67999999999995 140.98 285.0199999999999 144.11999999999998 283.48999999999995 145.76999999999998C282.88999999999993 146.42 282.0799999999999 146.74999999999997 281.0199999999999 146.74999999999997C281.00999999999993 146.74999999999997 281.00999999999993 146.74999999999997 280.99999999999994 146.74999999999997C280.98999999999995 146.74999999999997 280.97999999999996 146.74999999999997 280.96999999999997 146.74999999999997C279.91999999999996 146.74999999999997 279.10999999999996 146.41999999999996 278.51 145.76999999999998C276.99 144.13 277.31 140.98 277.32 140.95Z " fill="#29272c" fill-opacity="1" transform="matrix(1,0,0,1,-262,-129)"></path><path id="SvgjsPath1009" d="M291 154.67V154.66C291 154.60999999999999 290.99 154.57 290.99 154.52C290.96000000000004 153.46 290.90000000000003 150.98000000000002 288.79 150.18C288.77000000000004 150.18 288.75 150.17000000000002 288.74 150.17000000000002C286.54 149.55 284.72 148.15 284.7 148.14000000000001C284.4 147.91000000000003 283.99 147.99 283.78 148.31C283.57 148.64000000000001 283.65 149.09 283.94 149.32C284.03 149.39 285.96 150.87 288.39 151.56C289.52 152.01 289.65 153.34 289.68 154.56C289.68 154.61 289.68 154.66 289.69 154.7C289.69 155.17999999999998 289.66 155.92999999999998 289.59 156.35999999999999C288.79999999999995 156.85 285.71 158.55999999999997 281 158.55999999999997C276.32 158.55999999999997 273.21 156.84999999999997 272.41 156.34999999999997C272.34000000000003 155.91999999999996 272.3 155.17999999999998 272.31 154.68999999999997C272.31 154.64999999999998 272.32 154.60999999999996 272.32 154.55999999999997C272.34999999999997 153.33999999999997 272.48 151.99999999999997 273.61 151.54999999999998C276.04 150.86999999999998 277.97 149.38 278.06 149.32C278.35 149.09 278.43 148.64 278.22 148.31C278.01000000000005 147.98 277.6 147.9 277.3 148.13C277.28000000000003 148.15 275.47 149.54 273.26 150.16C273.24 150.17 273.23 150.17 273.21 150.18C271.09999999999997 150.98000000000002 271.03999999999996 153.46 271.01 154.52C271.01 154.56 271.01 154.61 271 154.65C271 154.66 271 154.66 271 154.67000000000002C271 154.95000000000002 270.99 156.38000000000002 271.25 157.10000000000002C271.3 157.24 271.39 157.35000000000002 271.5 157.44000000000003C271.65 157.54000000000002 275.15 160.00000000000003 281.01 160.00000000000003C286.86 160.00000000000003 290.37 157.54000000000002 290.51 157.44000000000003C290.62 157.35000000000002 290.71999999999997 157.24000000000004 290.76 157.10000000000002C291.01 156.38000000000002 291 154.95000000000002 291 154.67000000000002Z " fill="#29272c" fill-opacity="1" transform="matrix(1,0,0,1,-262,-129)"></path></svg>