<?xml version="1.0" encoding="UTF-8"?>
<svg width="378px" height="46px" viewBox="0 0 378 46" version="1.1" xmlns="http://www.w3.org/2000/svg" xmlns:xlink="http://www.w3.org/1999/xlink">
    <!-- Generator: Sketch 43.1 (39012) - http://www.bohemiancoding.com/sketch -->
    <title>Group 2</title>
    <desc>Created with Sketch.</desc>
    <defs>
        <linearGradient x1="77.0645631%" y1="50%" x2="-35.3204849%" y2="50%" id="linearGradient-1">
            <stop stop-color="#FFC200" offset="0%"></stop>
            <stop stop-color="#FB531D" offset="100%"></stop>
        </linearGradient>
    </defs>
    <g id="Page-1" stroke="none" stroke-width="1" fill="none" fill-rule="evenodd">
        <g id="logo" transform="translate(-1.000000, -11.000000)">
            <g id="Group-2" transform="translate(1.000000, 11.000000)">
                <path d="M215.08162,7.67824833 C216.325013,3.43766887 220.906923,2.36010032e-17 225.342385,2.29053832e-17 L371.393332,9.62964972e-35 C375.816803,-6.93739421e-19 378.394307,3.43923122 377.151372,7.67824833 L368.3824,37.5847362 C367.139007,41.8253156 362.557096,45.2629845 358.121634,45.2629845 L212.070688,45.2629845 C207.647217,45.2629845 205.069712,41.8237533 206.312647,37.5847362 L215.08162,7.67824833 Z" id="Rectangle-5-Copy-3" fill="url(#linearGradient-1)"></path>
                <path d="M20.672,41.672 C29.688,41.672 34.56,36.464 36.968,31.648 L28.68,27.728 C27.448,30.696 24.256,33.16 20.672,33.16 C14.568,33.16 10.256,28.456 10.256,22.352 C10.256,16.248 14.568,11.544 20.672,11.544 C24.256,11.544 27.448,14.008 28.68,16.976 L36.968,13.056 C34.504,8.128 29.688,3.032 20.672,3.032 C9.192,3.032 0.456,10.816 0.456,22.352 C0.456,33.832 9.192,41.672 20.672,41.672 Z M77.4880001,41 L77.4880001,3.648 L42.7120001,3.648 L42.7120001,41 L52.3440001,41 L52.3440001,12.048 L67.8560001,12.048 L67.8560001,41 L77.4880001,41 Z M103.896,41.672 C92.4720003,41.672 83.9040003,33.72 83.9040003,22.352 C83.9040003,10.984 92.4720003,3.032 103.896,3.032 C115.32,3.032 123.832,10.984 123.832,22.352 C123.832,33.72 115.32,41.672 103.896,41.672 Z M103.896,33.16 C110.056,33.16 114.032,28.4 114.032,22.352 C114.032,16.248 110.056,11.544 103.896,11.544 C97.6800003,11.544 93.7040003,16.248 93.7040003,22.352 C93.7040003,28.4 97.6800003,33.16 103.896,33.16 Z M139.936,41 L130.304,41 L130.304,3.648 L149.008,3.648 C157.408,3.648 162,9.304 162,16.08 C162,22.8 157.408,28.456 149.008,28.456 L139.936,28.456 L139.936,41 Z M147.72,20.056 C150.296,20.056 152.2,18.6 152.2,16.08 C152.2,13.504 150.296,12.048 147.72,12.048 L139.936,12.048 L139.936,20.056 L147.72,20.056 Z M185.888001,41 L185.888001,12.048 L196.304001,12.048 L196.304001,3.648 L165.784001,3.648 L165.784001,12.048 L176.256001,12.048 L176.256001,41 L185.888001,41 Z" id="Спорт" fill="#FFC200"></path>
                <path d="M255.85,34.36 C260.62,34.36 264.07,31.93 264.07,28.48 C264.07,25.48 261.43,23.89 259.42,23.68 C261.61,23.29 263.77,21.64 263.77,19.12 C263.77,15.79 260.53,13.69 255.85,13.69 C252.34,13.69 249.49,15.04 247.87,16.87 L250,19.54 C251.41,18.19 253.48,17.47 255.43,17.47 C257.71,17.47 259.51,18.25 259.51,19.84 C259.51,21.31 257.8,21.97 255.43,21.97 L251.38,21.97 L251.38,25.72 L255.43,25.72 C258.43,25.72 259.84,26.44 259.84,28.03 C259.84,29.53 258.31,30.58 255.67,30.58 C253.72,30.58 251.2,29.74 249.82,28.3 L247.6,31.15 C249.07,32.95 252.16,34.36 255.85,34.36 Z M286.797143,34 L281.937143,34 L280.707143,30.61 L272.127143,30.61 L270.867143,34 L266.007143,34 L273.747143,13.99 L279.087143,13.99 L286.797143,34 Z M279.537143,26.86 L276.417143,18.25 L273.297143,26.86 L279.537143,26.86 Z M293.624286,34 L303.164286,20.59 L303.164286,34 L307.424286,34 L307.424286,13.99 L303.044286,13.99 L293.774286,26.92 L293.774286,13.99 L289.514286,13.99 L289.514286,34 L293.624286,34 Z M303.734286,10.42 L302.054286,9.01 C301.214286,10.18 299.984286,10.87 298.484286,10.87 C296.924286,10.87 295.694286,10.15 294.884286,9.01 L293.204286,10.42 C294.434286,12.04 296.354286,13.06 298.484286,13.06 C300.644286,13.06 302.534286,12.04 303.734286,10.42 Z M333.931429,34 L333.931429,13.99 L327.931429,13.99 L323.071429,26.08 L318.211429,13.99 L312.241429,13.99 L312.241429,34 L316.501429,34 L316.501429,19.99 L322.141429,34 L324.001429,34 L329.641429,19.99 L329.641429,34 L333.931429,34 Z" id="займ" fill="#29272C"></path>
            </g>
        </g>
    </g>
</svg>