<?xml version="1.0" encoding="UTF-8"?>
<svg width="127px" height="15px" viewBox="0 0 127 15" version="1.1" xmlns="http://www.w3.org/2000/svg" xmlns:xlink="http://www.w3.org/1999/xlink">
    <!-- Generator: Sketch 43.1 (39012) - http://www.bohemiancoding.com/sketch -->
    <title>logo</title>
    <desc>Created with Sketch.</desc>
    <defs></defs>
    <g id="Page-1" stroke="none" stroke-width="1" fill="none" fill-rule="evenodd">
        <g id="768-menu" transform="translate(-33.000000, -24.000000)">
            <g id="logo" transform="translate(33.000000, 24.000000)">
                <path d="M72.2425822,2.57093811 C72.6715419,1.1510482 74.2200509,7.69597929e-18 75.7009928,7.47055914e-18 L124.789579,-1.41245552e-21 C126.270647,-2.26851754e-19 127.121398,1.15816646 126.694589,2.57093811 L123.78898,12.1887308 C123.36002,13.6086207 121.811511,14.7596689 120.330569,14.7596689 L71.2419834,14.7596689 C69.7609156,14.7596689 68.9101639,13.6015024 69.3369731,12.1887308 L72.2425822,2.57093811 Z" id="Rectangle-5-Copy-3" fill="#FFFFFF"></path>
                <path d="M6.9453545,13.5886957 C9.97453968,13.5886957 11.6114286,11.8904348 12.4204656,10.32 L9.63587302,9.04173913 C9.22194709,10.0095652 8.14950265,10.8130435 6.9453545,10.8130435 C4.89453968,10.8130435 3.44579894,9.27913043 3.44579894,7.28869565 C3.44579894,5.29826087 4.89453968,3.76434783 6.9453545,3.76434783 C8.14950265,3.76434783 9.22194709,4.56782609 9.63587302,5.53565217 L12.4204656,4.2573913 C11.5926138,2.65043478 9.97453968,0.988695652 6.9453545,0.988695652 C3.08831746,0.988695652 0.153206349,3.52695652 0.153206349,7.28869565 C0.153206349,11.0321739 3.08831746,13.5886957 6.9453545,13.5886957 Z M26.0343281,13.3695652 L26.0343281,1.18956522 L14.3503281,1.18956522 L14.3503281,13.3695652 L17.5864762,13.3695652 L17.5864762,3.92869565 L22.7981799,3.92869565 L22.7981799,13.3695652 L26.0343281,13.3695652 Z M34.9068572,13.5886957 C31.068635,13.5886957 28.1899684,10.9956522 28.1899684,7.28869565 C28.1899684,3.58173913 31.068635,0.988695652 34.9068572,0.988695652 C38.7450795,0.988695652 41.6049313,3.58173913 41.6049313,7.28869565 C41.6049313,10.9956522 38.7450795,13.5886957 34.9068572,13.5886957 Z M34.9068572,10.8130435 C36.9764869,10.8130435 38.3123387,9.26086957 38.3123387,7.28869565 C38.3123387,5.29826087 36.9764869,3.76434783 34.9068572,3.76434783 C32.8184128,3.76434783 31.4825609,5.29826087 31.4825609,7.28869565 C31.4825609,9.26086957 32.8184128,10.8130435 34.9068572,10.8130435 Z M47.0155345,13.3695652 L43.7793864,13.3695652 L43.7793864,1.18956522 L50.0635345,1.18956522 C52.8857568,1.18956522 54.4285716,3.03391304 54.4285716,5.24347826 C54.4285716,7.43478261 52.8857568,9.27913043 50.0635345,9.27913043 L47.0155345,9.27913043 L47.0155345,13.3695652 Z M49.6307938,6.54 C50.4962753,6.54 51.135979,6.06521739 51.135979,5.24347826 C51.135979,4.40347826 50.4962753,3.92869565 49.6307938,3.92869565 L47.0155345,3.92869565 L47.0155345,6.54 L49.6307938,6.54 Z M62.4544341,13.3695652 L62.4544341,3.92869565 L65.9539896,3.92869565 L65.9539896,1.18956522 L55.6999155,1.18956522 L55.6999155,3.92869565 L59.2182859,3.92869565 L59.2182859,13.3695652 L62.4544341,13.3695652 Z" id="Спорт" fill="#FFFFFF"></path>
                <path d="M86.6086976,11 C88.171699,11 89.3021717,10.2271971 89.3021717,9.13000772 C89.3021717,8.17593002 88.4371143,7.67026884 87.7784911,7.60348341 C88.4960955,7.47945331 89.2038697,6.95471057 89.2038697,6.15328531 C89.2038697,5.09425907 88.1422084,4.42640468 86.6086976,4.42640468 C85.4585645,4.42640468 84.5246958,4.85573964 83.9938651,5.43772704 L84.6918091,6.28685619 C85.1538284,5.85752122 85.832112,5.62854258 86.4710749,5.62854258 C87.2181698,5.62854258 87.8079817,5.87660278 87.8079817,6.38226396 C87.8079817,6.84976203 87.2476604,7.05965912 86.4710749,7.05965912 L85.1439982,7.05965912 L85.1439982,8.25225624 L86.4710749,8.25225624 C87.4540946,8.25225624 87.9161139,8.48123489 87.9161139,8.98689606 C87.9161139,9.46393491 87.4147738,9.7978621 86.5497164,9.7978621 C85.9107536,9.7978621 85.085017,9.53072035 84.6328279,9.07276306 L83.9053933,9.97913687 C84.387073,10.5515835 85.3995833,11 86.6086976,11 Z M96.7492484,10.8855107 L95.1567564,10.8855107 L94.7537183,9.80740288 L91.9422819,9.80740288 L91.5294136,10.8855107 L89.9369216,10.8855107 L92.4731125,4.52181245 L94.2228876,4.52181245 L96.7492484,10.8855107 Z M94.3703406,8.61480576 L93.3480001,5.87660278 L92.3256595,8.61480576 L94.3703406,8.61480576 Z M98.9863204,10.8855107 L102.112323,6.62078338 L102.112323,10.8855107 L103.508211,10.8855107 L103.508211,4.52181245 L102.073002,4.52181245 L99.0354714,8.63388732 L99.0354714,4.52181245 L97.6395834,4.52181245 L97.6395834,10.8855107 L98.9863204,10.8855107 Z M102.299097,3.38645999 L101.748606,2.93804348 C101.47336,3.31013378 101.070322,3.52957165 100.578812,3.52957165 C100.067642,3.52957165 99.664604,3.300593 99.3991887,2.93804348 L98.8486977,3.38645999 C99.2517358,3.90166195 99.8808684,4.22604837 100.578812,4.22604837 C101.286587,4.22604837 101.905889,3.90166195 102.299097,3.38645999 Z M112.193893,10.8855107 L112.193893,4.52181245 L110.227853,4.52181245 L108.635361,8.36674556 L107.042869,4.52181245 L105.08666,4.52181245 L105.08666,10.8855107 L106.482548,10.8855107 L106.482548,6.42996784 L108.330625,10.8855107 L108.940097,10.8855107 L110.788175,6.42996784 L110.788175,10.8855107 L112.193893,10.8855107 Z" id="займ" fill="#29272C"></path>
            </g>
        </g>
    </g>
</svg>