<svg id="SvgjsSvg1011" xmlns="http://www.w3.org/2000/svg" version="1.1" xmlns:xlink="http://www.w3.org/1999/xlink" xmlns:svgjs="http://svgjs.com/svgjs" width="64" height="64" viewBox="0 0 64 64"><title>prev</title><desc>Created with Avocode.</desc><defs id="SvgjsDefs1012"><clipPath id="SvgjsClipPath1015"><path id="SvgjsPath1014" d="M1119 2404C1119 2386.32689 1133.32689 2372 1151 2372C1168.67311 2372 1183 2386.32689 1183 2404C1183 2421.67311 1168.67311 2436 1151 2436C1133.32689 2436 1119 2421.67311 1119 2404Z " fill="#ffffff"></path></clipPath></defs><path id="SvgjsPath1013" d="M1119 2404C1119 2386.32689 1133.32689 2372 1151 2372C1168.67311 2372 1183 2386.32689 1183 2404C1183 2421.67311 1168.67311 2436 1151 2436C1133.32689 2436 1119 2421.67311 1119 2404Z " fill-opacity="0" fill="#ffffff" stroke-dashoffset="0" stroke-linejoin="miter" stroke-linecap="butt" stroke-opacity="1" stroke="#6e8898" stroke-miterlimit="50" stroke-width="2" clip-path="url(&quot;#SvgjsClipPath1015&quot;)" transform="matrix(1,0,0,1,-1119,-2372)"></path><path id="SvgjsPath1016" d="M1143 2392L1155 2404L1143 2416 " fill-opacity="0" fill="#ffffff" stroke-dashoffset="0" stroke-linejoin="miter" stroke-linecap="round" stroke-opacity="1" stroke="#8b9399" stroke-miterlimit="50" stroke-width="4" transform="matrix(1,0,0,1,-1119,-2372)"></path></svg>