<svg xmlns="http://www.w3.org/2000/svg" width="49" height="48" viewBox="0 0 49 48"><defs><linearGradient id="a" x1="1042" x2="1012.23" y1="281.5" y2="315.94" gradientUnits="userSpaceOnUse"><stop offset="0" stop-color="#ffc200"/><stop offset="1" stop-color="#fb531d"/></linearGradient><linearGradient id="b" x1="1032" x2="1025.39" y1="313.94" y2="318.24" gradientUnits="userSpaceOnUse"><stop offset="0" stop-color="#ffc200"/><stop offset="1" stop-color="#fb531d"/></linearGradient><linearGradient id="c" x1="1030" x2="1024.49" y1="276.31" y2="277.75" gradientUnits="userSpaceOnUse"><stop offset="0" stop-color="#ffc200"/><stop offset="1" stop-color="#fb531d"/></linearGradient><linearGradient id="d" x1="1033" x2="1030.8" y1="276.31" y2="277.75" gradientUnits="userSpaceOnUse"><stop offset="0" stop-color="#ffc200"/><stop offset="1" stop-color="#fb531d"/></linearGradient><linearGradient id="e" x1="1054" x2="1049.59" y1="280.18" y2="290.23" gradientUnits="userSpaceOnUse"><stop offset="0" stop-color="#ffc200"/><stop offset="1" stop-color="#fb531d"/></linearGradient><linearGradient id="f" x1="1050" x2="1046.69" y1="281.56" y2="288.74" gradientUnits="userSpaceOnUse"><stop offset="0" stop-color="#ffc200"/><stop offset="1" stop-color="#fb531d"/></linearGradient><linearGradient id="g" x1="1009" x2="1004.59" y1="280.18" y2="290.23" gradientUnits="userSpaceOnUse"><stop offset="0" stop-color="#ffc200"/><stop offset="1" stop-color="#fb531d"/></linearGradient><linearGradient id="h" x1="1012" x2="1008.69" y1="281.56" y2="288.74" gradientUnits="userSpaceOnUse"><stop offset="0" stop-color="#ffc200"/><stop offset="1" stop-color="#fb531d"/></linearGradient></defs><path fill="url(#a)" d="M1038.68 274h-20.16a3.53 3.53 0 0 0-3.52 3.52v40.96a3.53 3.53 0 0 0 3.52 3.52h20.16a3.53 3.53 0 0 0 3.52-3.52v-40.96a3.53 3.53 0 0 0-3.52-3.52zm-22.08 6.4h24v30.4h-24zm1.92-4.8h20.16c1.06 0 1.92.86 1.92 1.92v1.28h-24v-1.28c0-1.06.86-1.92 1.92-1.92zm20.16 44.8h-20.16a1.92 1.92 0 0 1-1.92-1.92v-6.08h24v6.08c0 1.06-.86 1.92-1.92 1.92z" transform="translate(-1005 -274)"/><path fill="url(#b)" d="M1029.2 313a3.2 3.2 0 0 0-3.2 3.2 3.2 3.2 0 0 0 3.2 3.2 3.2 3.2 0 0 0 3.2-3.2 3.2 3.2 0 0 0-3.2-3.2zm0 4.8a1.6 1.6 0 0 1-1.6-1.6c0-.88.72-1.6 1.6-1.6.88 0 1.6.72 1.6 1.6 0 .88-.72 1.6-1.6 1.6z" transform="translate(-1005 -274)"/><path fill="url(#c)" d="M1025.8 277.6h3.2a.8.8 0 0 0 .8-.8.8.8 0 0 0-.8-.8h-3.2a.8.8 0 0 0-.8.8c0 .44.36.8.8.8z" transform="translate(-1005 -274)"/><path fill="url(#d)" d="M1031.8 277.6h.8a.8.8 0 0 0 .8-.8.8.8 0 0 0-.8-.8h-.8a.8.8 0 0 0-.8.8c0 .44.36.8.8.8z" transform="translate(-1005 -274)"/><path fill="url(#e)" d="M1050.37 277.23a.81.81 0 0 0-1.14 0 .81.81 0 0 0 0 1.14 7.67 7.67 0 0 1 0 10.84.8.8 0 0 0 0 1.13.83.83 0 0 0 1.14 0 9.29 9.29 0 0 0 0-13.11z" transform="translate(-1005 -274)"/><path fill="url(#f)" d="M1047.37 279.23a.81.81 0 0 0-1.14 0 .81.81 0 0 0 0 1.14 5.2 5.2 0 0 1 0 7.42.8.8 0 0 0 0 1.13c.16.15.37.23.57.23.2 0 .41-.08.57-.23a6.84 6.84 0 0 0 0-9.69z" transform="translate(-1005 -274)"/><path fill="url(#g)" d="M1008.84 278.37a.81.81 0 0 0 0-1.14.8.8 0 0 0-1.13 0 9.29 9.29 0 0 0 0 13.11c.16.15.36.23.57.23.2 0 .4-.08.56-.23a.8.8 0 0 0 0-1.13 7.67 7.67 0 0 1 0-10.84z" transform="translate(-1005 -274)"/><path fill="url(#h)" d="M1012.13 279.23a.8.8 0 0 0-1.13 0 6.84 6.84 0 0 0 0 9.69.8.8 0 0 0 1.13 0 .79.79 0 0 0 0-1.13 5.21 5.21 0 0 1-1.53-3.71 5.2 5.2 0 0 1 1.53-3.71.8.8 0 0 0 0-1.14z" transform="translate(-1005 -274)"/></svg>