<?xml version="1.0" encoding="UTF-8"?>
<svg width="55px" height="53px" viewBox="0 0 55 53" version="1.1" xmlns="http://www.w3.org/2000/svg" xmlns:xlink="http://www.w3.org/1999/xlink">
    <!-- Generator: Sketch 43.1 (39012) - http://www.bohemiancoding.com/sketch -->
    <title>user</title>
    <desc>Created with Sketch.</desc>
    <defs>
        <linearGradient x1="100%" y1="15.6166943%" x2="-10.2455242%" y2="87.3777366%" id="linearGradient-1">
            <stop stop-color="#FFC200" offset="0%"></stop>
            <stop stop-color="#FB531D" offset="100%"></stop>
        </linearGradient>
    </defs>
    <g id="Page-1" stroke="none" stroke-width="1" fill="none" fill-rule="evenodd">
        <g id="1280px-copy-3" transform="translate(-225.000000, -1747.000000)" fill-rule="nonzero" fill="url(#linearGradient-1)">
            <g id="3b" transform="translate(0.000000, 1546.000000)">
                <g id="Group-14" transform="translate(206.000000, 182.000000)">
                    <g id="user" transform="translate(19.000000, 19.000000)">
                        <path d="M48.3190343,36.3934172 L43.1537365,43.7493149 L39.5086755,40.784083 C39.115463,40.4620338 38.5330286,40.5215031 38.2099668,40.910341 C37.8859818,41.3010087 37.94321,41.8783185 38.3382685,42.197623 L42.7559089,45.7923148 C42.9211319,45.9277219 43.1288146,46 43.3411124,46 C43.3826489,46 43.4251084,45.9972553 43.467568,45.9908509 C43.7223254,45.9560842 43.9512378,45.8170175 44.0989232,45.6075025 L49.834656,37.4382475 C50.1254117,37.023792 50.022955,36.4538015 49.6038976,36.1646891 C49.1848402,35.8746618 48.6107131,35.9780469 48.3190343,36.3934172 Z" id="Shape"></path>
                        <path d="M49.6503333,31.2179138 C50.1499167,29.2212759 50.4166667,27.1780345 50.4166667,25.1293103 C50.4166667,11.2734655 39.1086667,0 25.2083333,0 C11.308,0 0,11.2734655 0,25.1293103 C0,32.4487931 3.157,39.0454655 8.18308333,43.6418448 L8.15925,43.6628621 L8.976,44.3491207 C9.02733333,44.392069 9.08325,44.4277069 9.13458333,44.4706552 C9.57183333,44.8325172 10.0255833,45.1761034 10.4875833,45.5087241 C10.6333333,45.6138103 10.7790833,45.7188966 10.9266667,45.8203276 C11.4170833,46.1575172 11.92125,46.4773448 12.4355,46.7807241 C12.5473333,46.8456034 12.6591667,46.909569 12.771,46.9735345 C13.3329167,47.2924483 13.90675,47.5930862 14.49525,47.8699655 C14.5383333,47.890069 14.5814167,47.9083448 14.6245,47.9284483 C16.5394167,48.8157414 18.5835833,49.4672759 20.7203333,49.8519828 C20.7771667,49.8620345 20.8330833,49.8720862 20.8899167,49.8821379 C21.5526667,49.9963621 22.2236667,50.0877414 22.9038333,50.1489655 C22.9863333,50.1562759 23.06975,50.1608448 23.15225,50.1681552 C23.8315,50.2229828 24.5153333,50.2586207 25.2083333,50.2586207 C28.1985,50.2586207 31.1245,49.7313621 33.9194167,48.7033448 C36.1065833,51.325931 39.402,53 43.0833333,53 C49.654,53 55,47.6707586 55,41.1206897 C55,36.9885172 52.8705833,33.3461379 49.6503333,31.2179138 Z M1.83333333,25.1293103 C1.83333333,12.2804655 12.3190833,1.82758621 25.2083333,1.82758621 C38.0975833,1.82758621 48.5833333,12.2804655 48.5833333,25.1293103 C48.5833333,26.8682586 48.3871667,28.6053793 47.9975833,30.3068621 C47.982,30.2995517 47.9645833,30.2949828 47.949,30.2876724 C47.6043333,30.1332414 47.2505,29.9952586 46.8893333,29.8737241 C46.8581667,29.8636724 46.8279167,29.8499655 46.79675,29.8399138 C46.42,29.7165517 46.0359167,29.6105517 45.6435833,29.5246552 C45.62525,29.5200862 45.6069167,29.5146034 45.5885833,29.5100345 C45.2063333,29.4277931 44.8176667,29.3656552 44.4235,29.3208793 C44.396,29.3172241 44.3685,29.3117414 44.341,29.3080862 C43.9275833,29.2660517 43.5086667,29.2413793 43.0833333,29.2413793 C37.6539167,29.2413793 33.0705833,32.8837586 31.63875,37.8429138 C31.23725,37.4655172 30.9998333,36.9400862 30.9998333,36.3689655 L30.9998333,33.6668793 C31.1813333,33.4448276 31.3710833,33.1935345 31.5654167,32.9203103 C32.5700833,31.5066724 33.3758333,29.9331207 33.9634167,28.2389483 C35.1239167,27.6888448 35.8746667,26.5356379 35.8746667,25.2334828 L35.8746667,21.9940862 C35.8746667,21.2027414 35.5831667,20.4333276 35.0625,19.8293103 L35.0625,15.5646379 C35.1101667,15.0894655 35.2788333,12.4138793 33.3364167,10.2061552 C31.647,8.28353448 28.9125833,7.31034483 25.2083333,7.31034483 C21.5040833,7.31034483 18.7696667,8.28353448 17.08025,10.2052414 C15.1378333,12.4129655 15.3065,15.0903793 15.3541667,15.5637241 L15.3541667,19.8283966 C14.8335,20.4324138 14.542,21.2018276 14.542,21.9931724 L14.542,25.232569 C14.542,26.2386552 14.9948333,27.1771207 15.7694167,27.8103793 C16.5119167,30.7098448 18.0390833,32.9047759 18.60375,33.6486034 L18.60375,36.2931207 C18.60375,37.0387759 18.1958333,37.7241207 17.5385833,38.0823276 L10.2905,42.0235172 C10.0585833,42.1496207 9.83033333,42.2958276 9.60116667,42.4593966 C4.83633333,38.1892414 1.83333333,32.0028621 1.83333333,25.1293103 Z M23.47125,48.3597586 C23.3713333,48.3524483 23.2714167,48.3460517 23.1724167,48.3369138 C22.59125,48.2857414 22.0119167,48.2172069 21.4371667,48.1230862 C21.4133333,48.119431 21.3895,48.1139483 21.3665833,48.1102931 C20.1501667,47.907431 18.9539167,47.6095345 17.7888333,47.2202586 C17.7576667,47.2102069 17.7265,47.1992414 17.6953333,47.1882759 C16.5614167,46.8044828 15.4586667,46.3302241 14.3944167,45.7773793 C14.333,45.7453966 14.2706667,45.7152414 14.2101667,45.6832586 C13.7380833,45.4319655 13.2760833,45.1596552 12.8214167,44.8763793 C12.6903333,44.7941379 12.5610833,44.7109828 12.4318333,44.6269138 C12.0138333,44.3546034 11.60225,44.0713276 11.20075,43.7716034 C11.1595,43.7405345 11.1200833,43.7076379 11.0788333,43.676569 C11.1081667,43.6601207 11.1375,43.6436724 11.16775,43.6272241 L18.4158333,39.6860345 C19.6615833,39.008 20.4361667,37.7076724 20.4361667,36.2922069 L20.4361667,32.9998103 L20.2225833,32.7457759 C20.2033333,32.722931 18.2279167,30.3388448 17.4735,27.0665517 L17.3900833,26.7046897 L17.0775,26.5027414 C16.6365833,26.2185517 16.3725833,25.7433793 16.3725833,25.2307414 L16.3725833,21.9913448 C16.3725833,21.566431 16.5540833,21.1707586 16.8831667,20.8737759 L17.1856667,20.6014655 L17.1856667,15.5116379 L17.1774167,15.391931 C17.1746667,15.37 16.90425,13.1723276 18.4570833,11.4077931 C19.7844167,9.90277586 22.055,9.13793103 25.2083333,9.13793103 C28.3479167,9.13793103 30.6139167,9.89637931 31.9421667,11.3913448 C33.4931667,13.1376034 33.23925,15.3763966 33.2374167,15.3946724 L33.2291667,20.6042069 L33.5316667,20.8765172 C33.86075,21.1725862 34.04225,21.5691724 34.04225,21.9940862 L34.04225,25.2334828 C34.04225,25.895069 33.6068333,26.4725862 32.9596667,26.6717931 L32.5031667,26.8125172 L32.3565,27.2657586 C31.8165833,28.9407414 31.0465833,30.4868793 30.0685,31.8639655 C29.8310833,32.1993276 29.5973333,32.4990517 29.3938333,32.7302414 L29.1665,32.9888448 L29.1665,36.3689655 C29.1665,37.8191552 29.9621667,39.1240517 31.2455,39.7920345 C31.1969167,40.2288276 31.1666667,40.6711034 31.1666667,41.1206897 C31.1666667,41.3875172 31.1758333,41.653431 31.19325,41.918431 C31.1996667,42.0125517 31.2125,42.1057586 31.2216667,42.1989655 C31.2299167,42.2866897 31.2381667,42.3735 31.24825,42.4612241 C31.2574167,42.5434655 31.262,42.6266207 31.273,42.7079483 C31.2940833,42.8632931 31.3243333,43.0168103 31.3518333,43.1712414 C31.3701667,43.2763276 31.3839167,43.3823276 31.405,43.4865 C31.405,43.4865 31.4068333,43.4938103 31.40775,43.4974655 C31.41325,43.5248793 31.4215,43.5504655 31.427,43.5778793 C31.4554167,43.7112931 31.4893333,43.8437931 31.5223333,43.9762931 C31.54525,44.0685862 31.5635833,44.1608793 31.5883333,44.2522586 C31.6103333,44.3326724 31.63875,44.4103448 31.6625833,44.4898448 C31.69375,44.5958448 31.72675,44.700931 31.7615833,44.8051034 C31.7835833,44.8708966 31.8000833,44.9376034 31.823,45.0024828 C31.8871667,45.1861552 31.9605,45.3670862 32.0338333,45.5471034 C32.03475,45.5498448 32.0356667,45.5516724 32.0365833,45.5544138 C32.0925,45.6914828 32.1511667,45.8258103 32.2116667,45.9601379 C32.2565833,46.0597414 32.3033333,46.1593448 32.351,46.2580345 C32.3821667,46.3229138 32.4096667,46.3887069 32.44175,46.4526724 C32.4628333,46.4947069 32.4875833,46.5349138 32.5095833,46.5769483 C32.5865833,46.7258966 32.6681667,46.8711897 32.7515833,47.015569 C32.7763333,47.0585172 32.7983333,47.1032931 32.8230833,47.1462414 C30.3590833,47.9988103 27.8025,48.4310345 25.2083333,48.4310345 C24.6271667,48.4310345 24.0478333,48.4027069 23.47125,48.3597586 Z M43.0833333,51.1724138 C39.7274167,51.1724138 36.7574167,49.5230172 34.9231667,47.0018621 C34.8470833,46.8976897 34.7783333,46.7907759 34.7068333,46.6847759 C34.6573333,46.6116724 34.6050833,46.5403966 34.5583333,46.4663793 C34.5189167,46.4033276 34.4804167,46.3402759 34.4419167,46.2763103 C34.4006667,46.2086897 34.364,46.1392414 34.3245833,46.0707069 C34.2613333,45.9592241 34.1935,45.8504828 34.1348333,45.7371724 C34.09175,45.6540172 34.05325,45.5681207 34.012,45.4831379 C34.001,45.4602931 33.9909167,45.4365345 33.9799167,45.4136897 C33.9111667,45.2702241 33.8396667,45.1285862 33.7773333,44.9823793 C33.7443333,44.9047069 33.7195833,44.8242931 33.6884167,44.7466207 C33.6178333,44.5647759 33.5463333,44.382931 33.4858333,44.1965172 C33.4574167,44.1097069 33.4354167,44.0201552 33.40975,43.932431 C33.4015,43.9050172 33.3941667,43.8785172 33.3868333,43.8520172 C33.3355,43.6701724 33.286,43.4874138 33.24475,43.301 C33.2319167,43.243431 33.2218333,43.1849483 33.2099167,43.1264655 C33.1989167,43.0716379 33.187,43.0158966 33.1769167,42.961069 C33.1393333,42.7582069 33.1081667,42.5535172 33.0825,42.347 C33.07975,42.3232414 33.077,42.2994828 33.07425,42.2748103 C33.066,42.1998793 33.0540833,42.1249483 33.0476667,42.0500172 C33.01925,41.7429828 33,41.4341207 33,41.1206897 C33,40.8328448 33.01925,40.5486552 33.0430833,40.2672069 C33.06875,39.9976379 33.1045,39.7198448 33.1549167,39.427431 L33.22275,39.0317586 C34.1898333,34.4883793 38.2424167,31.0689655 43.0833333,31.0689655 C43.4921667,31.0689655 43.8991667,31.1000345 44.3043333,31.1502931 C44.3969167,31.1612586 44.48675,31.1786207 44.5784167,31.1923276 C44.913,31.2425862 45.24575,31.3083793 45.5739167,31.3924483 C45.6426667,31.4098103 45.7114167,31.4262586 45.7801667,31.4454483 C46.5886667,31.6711552 47.3705833,31.9946379 48.10575,32.4168103 C51.12525,34.1548448 53.1666667,37.4015517 53.1666667,41.1206897 C53.1666667,46.6628448 48.6429167,51.1724138 43.0833333,51.1724138 Z" id="Shape"></path>
                    </g>
                </g>
            </g>
        </g>
    </g>
</svg>