<?xml version="1.0" encoding="UTF-8"?>
<svg width="45px" height="45px" viewBox="0 0 45 45" version="1.1" xmlns="http://www.w3.org/2000/svg" xmlns:xlink="http://www.w3.org/1999/xlink">
    <!-- Generator: Sketch 43.1 (39012) - http://www.bohemiancoding.com/sketch -->
    <title>wallet (1)</title>
    <desc>Created with Sketch.</desc>
    <defs>
        <linearGradient x1="100%" y1="15.6166943%" x2="-10.2455242%" y2="87.3777366%" id="linearGradient-1">
            <stop stop-color="#FFC200" offset="0%"></stop>
            <stop stop-color="#FB531D" offset="100%"></stop>
        </linearGradient>
    </defs>
    <g id="Page-1" stroke="none" stroke-width="1" fill="none" fill-rule="evenodd">
        <g id="1280px-copy-3" transform="translate(-1007.000000, -1749.000000)" fill-rule="nonzero" fill="url(#linearGradient-1)">
            <g id="3b" transform="translate(0.000000, 1546.000000)">
                <g id="Group-17" transform="translate(985.000000, 182.000000)">
                    <g id="wallet-(1)" transform="translate(22.000000, 21.000000)">
                        <path d="M45,24.9692483 C45,22.756575 43.2190763,20.9628489 42.819058,20.9628489 L42.819058,20.9628489 L42.819058,11.0310981 C42.819058,8.65005256 40.8623592,6.71299227 38.4571739,6.71299227 L35.5033256,6.71299227 L32.4805212,1.3326276 C32.0198181,0.510368017 31.1430704,0 30.1922085,0 C29.7490159,0 29.3093525,0.113146359 28.9211348,0.3264044 L17.3202118,6.71285789 L4.36188408,6.71285789 C1.95669879,6.71285789 0,8.64991818 0,11.0309637 L0,40.6818942 C0,43.0629397 1.95669879,45 4.36188408,45 L38.4571739,45 C40.8623592,45 42.819058,43.0629397 42.819058,40.6818942 L42.819058,31.9739247 L42.819058,31.9739247 C44.023559,31.9739247 45,30.1802987 45,27.9675253 L45,24.9692483 Z M38.4571739,8.44015397 C39.8005973,8.44015397 40.8980589,9.45054289 41.0454731,10.7433946 L37.7670694,10.7433946 L36.4741414,8.44015397 L38.4571739,8.44015397 Z M29.7699199,1.83600796 C30.1790417,1.60890897 30.729605,1.76774388 30.9554771,2.17114693 L35.7710058,10.7425883 L13.5899281,10.7425883 L29.7699199,1.83600796 Z M41.07425,40.6818942 C41.07425,42.1103334 39.8999593,43.2728383 38.4570381,43.2728383 L4.36188408,43.2728383 C2.91896294,43.2728383 1.74467219,42.1103334 1.74467219,40.6818942 L1.74467219,11.0310981 C1.74467219,9.60265889 2.91896294,8.44015397 4.36188408,8.44015397 L14.1831139,8.44015397 L9.99918556,10.7435289 L4.90715352,10.7435289 C4.42473191,10.7435289 4.03474956,11.1304035 4.03474956,11.607177 C4.03474956,12.0839505 4.42473191,12.470825 4.90715352,12.470825 L6.86127325,12.470825 L38.7372065,12.470825 L41.07425,12.470825 L41.07425,20.9636552 L34.694584,20.9636552 C31.7319126,20.9636552 29.3207547,23.3507477 29.3207547,26.2835497 L29.3207547,26.6549708 C29.3207547,29.5879072 31.7320483,31.9748653 34.694584,31.9748653 L41.07425,31.9748653 L41.07425,40.6818942 Z M43.2551921,30.246763 L42.819058,30.246763 L34.694584,30.246763 C32.6933623,30.246763 31.0654269,28.6353008 31.0654269,26.6540301 L31.0654269,26.2826091 C31.0654269,24.3014728 32.6932266,22.6898763 34.694584,22.6898763 L42.819058,22.6898763 L43.2551921,22.6898763 L43.2551921,30.246763 Z M37.366635,26.5392713 C37.366635,27.5929299 36.504683,28.4460965 35.4404778,28.4460965 C34.3761368,28.4460965 33.5143206,27.5927955 33.5143206,26.5392713 C33.5143206,25.485747 34.3762726,24.632446 35.4404778,24.632446 C36.5048188,24.6323117 37.366635,25.4864189 37.366635,26.5392713 Z" id="Shape"></path>
                    </g>
                </g>
            </g>
        </g>
    </g>
</svg>